<svg xmlns="http://www.w3.org/2000/svg" xmlns:xlink="http://www.w3.org/1999/xlink" width="704.813" height="704.813" viewBox="0 0 704.813 704.813"><defs><style>.a{fill:none;}.b{clip-path:url(#a);}.c{fill:rgba(255,255,255,0.5);}.d{fill:#d5dbe1;}.e{fill:#81c1bf;}.f{fill:#65afaa;}.g{fill:#676d99;}.h{fill:#4b4f54;}.i{fill:#72c9b8;}.j{fill:#4b4f55;}</style><clipPath id="a"><circle class="a" cx="352.406" cy="352.406" r="352.406" transform="translate(178.979 235.312)"/></clipPath></defs><g transform="translate(-157.001 -1343.668)"><g transform="translate(-21.979 1108.356)"><g class="b"><path class="c" d="M255.27,148.83,60.627,939.094A16.064,16.064,0,0,0,76.225,959H964.187a16.064,16.064,0,0,0,15.761-19.169L824.277,149.567a16.063,16.063,0,0,0-15.761-12.96H270.868A16.065,16.065,0,0,0,255.27,148.83Z"/><path class="d" d="M627.224,143l34.5,175s20.5,68.5,40,111.5c24.939,54.994,84.5,160,84.5,160s39.5,93.5,73.5,171.5,71,184,71,184l-11.5-.833S880.724,827,851.724,761s-63.5-156-80.5-188-66.5-120.5-75-139.5a701.671,701.671,0,0,1-52.5-170.5c-15.5-89-21.5-119.5-21.5-119.5Z"/><path class="d" d="M641.724,143.667v6L661.058,149l1.333,12-17.333.667s-.667,78,50.666,102c0,0,16.667,3.333,28,1.333L701.058,160.333H690.391l-.667-4.666h8l-1.333-11.334Z"/><path class="d" d="M831.724,264l-36.666.667s-2.667-20.334-5.334-32.334-9.333-15.333-12-10,8,42,8,42l-52,2-16-70h22L745.058,223h6l-6.667-33.333h-28L711.058,159h78.666l8,24.667h8.667l-5.333-25.334,14.666-.666Z"/><path class="d" d="M662.391,252.333l4,24h27.333Z"/><path class="d" d="M677.058,314.333l1.333,12L691.058,313Z"/><path class="d" d="M863.724,418.5c-39.5,14-141,16-141,16l-32.5-76c-11-45.5,35-50.5,35-50.5l19.5,78.5,9.5-1-11-43.5,13.5-1-1.5-9h-15l-.5-6,12,.5-1-9-15-.5-1-10,107-5Z"/><path class="d" d="M729.224,445l34.5-2,31.5,51-37.5,7Z"/><path class="d" d="M775.224,442.5l31.5,50,36-8-28-45.5Z"/><path class="d" d="M878.224,479.5l-23.5.5-26-41.5,41.5-3Z"/><path class="d" d="M768.724,514l31-7,44.5,74.5-32,9.5Z"/><path class="d" d="M813.224,502.5l42,75,37.5-10-42.5-73.5Z"/><path class="d" d="M887.224,517l-10,.5-13-26.5,16.5-1.5Z"/><path class="d" d="M898.224,539l-8.5,1.5-7.5-15,9.5-1Z"/><path class="d" d="M901.724,577.5l-84,26.5,17.5,34.5,72-22Z"/><path class="d" d="M839.224,653l36-10.5,43.5,99-37,13Z"/><path class="d" d="M926.224,726l-37.5-87,21.5-8Z"/><path class="d" d="M969.332,942.437l-13.107.063-71-180.5,38-13,16,41.5Z"/><path class="d" d="M611.724,145a403.2,403.2,0,0,1,7.5,41c3,23-3.5,71.5-3.5,71.5l-29,26-76,7.5,2-114-8-32Z"/><path class="d" d="M601.224,286l21.5-19.5,5-24.5,5,43Z"/><path class="d" d="M456.724,294.5s7.5-10,15-11.5,33-3.5,33-3.5l-2,15Z"/><path class="d" d="M441.224,299.5s15-24.5,27-26l36-4.5V177.5l-11-34.5h-78l-14,25s30.5,52.5,32,60.5S444.724,272.5,441.224,299.5Z"/><path class="d" d="M425.724,298V268l-109.5,9.5-8,6,8.5,11.5,96-7,2.5,13,9.5.5Z"/><path class="d" d="M321.724,312l85-6.5V300l-88.5,6.5,1.5,5.5Z"/><path class="d" d="M324.724,270.5l62-83.5,35.5,62,1,10Z"/><path class="d" d="M313.224,265l23-25.5,3-32,21-15.5,6.5,2,14.5-20.5-18-27h-77l-34.5,42S264.224,230,313.224,265Z"/><path class="d" d="M247.224,215.5l-17.5,75,73-7.5-25-26-32,3,9.5-31.5Z"/><path class="d" d="M227.224,302l72.5-5,7,14.5-82.5,6Z"/><path class="d" d="M210.724,358l19,1-5,53-25,1"/><path class="e" d="M243.724,357l-9,58,30-5,31,11-5,7-27-11-19,7,52,41,98-73,27-6,3-46Z"/><path class="d" d="M434.724,341l-1,44,76-8,1-44Z"/><path class="d" d="M519.724,331v43l132-10-13-45Z"/><path class="d" d="M307.724,473l22,22,37-27,51-52,2-16-21-1-57,47Z"/><path class="d" d="M299.724,525l22,22,66-52-17-19Z"/><path class="d" d="M377.724,472l17,20,70-67,4-34-37,4v22Z"/><path class="d" d="M477.724,390v34l-19,21,8,12,27-11,18-1V386Z"/><path class="d" d="M519.724,385l3,80,10,4,34-8-16-57-6-23Z"/><path class="d" d="M556.724,382l4,27,16,46,26-6-18-51-3-20Z"/><path class="d" d="M592.724,381l5,23,15,41,28-8-25-62Z"/><path class="d" d="M627.724,375l21,59,25-7-22-58Z"/><path class="d" d="M651.724,444l24-8,27,52-30,10Z"/><path class="d" d="M639.724,448l23,49-25,11-23-49Z"/><path class="d" d="M574.724,469l29-10,23,51-29,10Z"/><path class="e" d="M522.724,483l45-12,22,55-62,18Z"/><path class="d" d="M478.724,509l33-4V456l-27,5s-12,5-12,8S478.724,509,478.724,509Z"/><path class="d" d="M353.724,570s44-42,68-57,53-21,53-21l-24-37-121,98Z"/><path class="d" d="M394.724,552l17,15,30-16-21-25Z"/><path class="d" d="M427.724,521l29,23,11-7,3-35-15,1Z"/><path class="d" d="M478.724,520v20l12,49,4,24,36-8-14-51-5-38Z"/><path class="d" d="M528.724,554l13,43,35-8-10-28-6-16Z"/><path class="d" d="M573.724,541l7,24,98-26-10-29-44,16Z"/><path class="d" d="M585.724,575l8,30,62-15,41-15-10-26-52,15Z"/><path class="d" d="M680.724,510l70,147,33-9-31-75-44-72Z"/><path class="d" d="M377.724,616l17,16,57-45,25-10-8-29-48,23-44,41Z"/><path class="d" d="M401.724,641l22,19,38-33,21-7-4-34-21,8Z"/><path class="d" d="M434.724,668l30,39,60-51,63-22-8-33-115,36Z"/><path class="e" d="M468.724,713l80,86,79-114-40-51-63,22-60,51Z"/><path class="d" d="M597.724,618l9,20,44,35,38,10-31-83Z"/><path class="d" d="M671.724,598l31,77,33-11-33-78Z"/><path class="d" d="M708.724,692l16,48,85-30-19-50Z"/><path class="f" d="M643.724,684s30,18,41,16l11-2,16,42-46,21-40-45Z"/><path class="d" d="M594.724,757l22-28s43,43,47,56,42,114,42,114l-42,8-18-64-22-47Z"/><path class="d" d="M588.724,774l19,26,24,53,15,52-48,11-22-61-19-41Z"/><path class="d" d="M675.724,774l18,46,88-36-19-41Z"/><path class="d" d="M778.724,739l18,44,41-12-24-48Z"/><path class="f" d="M700.724,841l17,55,64-20,28-15-22-58-48,21Z"/><path class="d" d="M800.724,792l15,47,9,24,39-5-25-78Z"/><path class="d" d="M821.724,941l-14-47,66-14,23,58Z"/><path class="d" d="M808.724,942l-14-44-72,20,5,23Z"/><path class="d" d="M710.724,940l-8-27-150,31Z"/><path class="d" d="M542.724,924l41-4-18-53-29-55-21-25-25,42,26,31,20,30Z"/><path class="d" d="M530.724,943l-7-47-44-56-32,40,30,38,10,25Z"/><path class="f" d="M447.724,941l16-15-63-91-78,95,10,11Z"/><path class="d" d="M411.724,823l26,39,71-84-32-35Z"/><path class="d" d="M343.724,648l43,45,52,69,29-28-42-55-56-58Z"/><path class="d" d="M299.724,683l45,50,31,42,28,34,30-33-42-45-24-37-39-40Z"/><path class="d" d="M289.724,691l44,54-86,82-15-31-25-32Z"/><path class="d" d="M357.724,778l-18-23-67,67-66,72,24,29,70-76Z"/><path class="d" d="M334.724,830l21,36,39-44-25-32Z"/><path class="d" d="M322.724,845l23,30-53,70-43,1-9-11Z"/><path class="d" d="M227.724,943l-8-9-12,10Z"/><path class="d" d="M184.724,945l23-23-39-63-53,53,21,34Z"/><path class="d" d="M200.724,874l-19-33-3-14-43-58,31-26,52,66,17,29Z"/><path class="d" d="M178.724,732l20,23,103-92-18-20Z"/><path class="d" d="M114.724,771l90-80-23-25-56,48Z"/><path class="g" d="M297.474,634.083,312.391,651l93.333-77.333-17.583-15.583-41.333,36Z"/><path class="d" d="M215.724,679.667l60.5-53.167,62.5-47-22.333-17.833-68,53.333-54.667,44Z"/><path class="d" d="M132.391,691l122-94,55.333-40-22.667-20.667-77.333,54-66,49.333Z"/><path class="d" d="M158.391,589.667l12.667,14,76-50.667-34-25.333-50,33.333Z"/><path class="d" d="M179.058,499l34,28.667-50,33.333Z"/><path class="d" d="M182.391,485.667l44.667,40.667,29.333,22L283.058,529l-62.667-48.667-24-19.333h-8.667Z"/><path class="d" d="M197.724,421l-6,28.667L214.391,453l78,66,28-20-97.333-74.667Z"/><path class="h" d="M405.44,316.234l1.933-.18,6.335,11.464-2.2.206-1.47-2.752-5.61.523-.954,2.979-2.136.2Zm3.659,6.96-2.494-4.554-1.591,4.935Z"/><path class="h" d="M417.575,315.188l2.306-.215,4.428,8.786,2.709-9.452,2.254-.21-3.8,12.41-1.864.174Z"/><path class="h" d="M436.18,322.049l3.223-.3.312,3.344-3.223.3Z"/><path class="h" d="M464.534,310.721l1.932-.18,6.337,11.464-2.2.2-1.472-2.752-5.61.524-.953,2.978-2.137.2Zm3.658,6.96-2.493-4.555-1.592,4.936Z"/><path class="h" d="M477.686,309.58l1.932-.18,7.123,7.61-.765-8.2,2.051-.191,1.107,11.866-1.747.163-7.33-7.832.788,8.443-2.052.191Z"/><path class="h" d="M495.066,313.977l0-.034a6.061,6.061,0,0,1,5.547-6.707,6.463,6.463,0,0,1,4.71,1.185l-1.175,1.7a4.688,4.688,0,0,0-3.44-.945,4.025,4.025,0,0,0-3.458,4.529l0,.034a3.98,3.98,0,0,0,4.43,3.861,4.823,4.823,0,0,0,2.78-1.164l-.2-2.2-3.035.283-.171-1.832,5.053-.471.465,4.984a7.639,7.639,0,0,1-4.778,2.309A5.913,5.913,0,0,1,495.066,313.977Z"/><path class="h" d="M516.477,305.875l1.933-.18,6.337,11.464-2.2.205-1.471-2.752-5.611.524-.953,2.978-2.137.2Zm3.659,6.96-2.493-4.555-1.592,4.936Z"/><path class="h" d="M529.63,304.734l2.221-.208,4.134,5.274,3.088-5.947,2.22-.208,1.107,11.867-2.085.194-.794-8.51L536.3,313.14l-.068.006L532,307.932l.791,8.476-2.052.192Z"/><path class="h" d="M548.333,309.008l0-.034a6.117,6.117,0,0,1,5.649-6.717,6.05,6.05,0,0,1,6.758,5.525l0,.034a6.116,6.116,0,0,1-5.649,6.716A6.051,6.051,0,0,1,548.333,309.008Zm10.223-.954,0-.034a4.06,4.06,0,0,0-4.427-3.829,4.014,4.014,0,0,0-3.612,4.544l0,.035a4.059,4.059,0,0,0,4.427,3.827A4.012,4.012,0,0,0,558.556,308.054Z"/><path class="h" d="M566.817,311.489l1.116-1.608a5.44,5.44,0,0,0,3.89,1.192c1.288-.12,2.045-.806,1.963-1.687l0-.034c-.078-.831-.6-1.278-2.848-1.564-2.582-.357-4.077-1-4.28-3.174l0-.034c-.19-2.035,1.373-3.6,3.73-3.82a6.6,6.6,0,0,1,4.445,1.09l-.972,1.681a5.446,5.446,0,0,0-3.334-.919c-1.221.114-1.876.789-1.8,1.586l0,.034c.086.916.666,1.271,3.005,1.6,2.552.413,3.936,1.139,4.121,3.122l0,.033c.209,2.238-1.414,3.706-3.907,3.939A7.234,7.234,0,0,1,566.817,311.489Z"/><g transform="translate(-6.51 6.875)"><path class="h" d="M211.235,684.7l1.508-1.221,11.629,6.027-1.72,1.393-2.749-1.475-4.379,3.547.858,3.007-1.667,1.35Zm6.9,3.763-4.6-2.407,1.412,4.99Z"/><path class="h" d="M221.547,676.461l1.627-1.318,6.3,7.779,4.869-3.943,1.2,1.481-6.5,5.262Z"/><path class="h" d="M232.811,667.337l6.893-5.582,1.2,1.482-5.266,4.264,2.047,2.527,4.67-3.782,1.2,1.481-4.671,3.783,3.054,3.771-1.627,1.317Z"/><path class="h" d="M247.8,655.083l1.507-1.221,11.63,6.027-1.72,1.393-2.749-1.475-4.38,3.547.858,3.007-1.667,1.351Zm6.9,3.764-4.6-2.408,1.413,4.99Z"/><path class="h" d="M247.8,655.083l1.507-1.221,11.63,6.027-1.72,1.393-2.749-1.475-4.38,3.547.858,3.007-1.667,1.351Zm6.9,3.764-4.6-2.408,1.413,4.99Z" transform="translate(73.137 -59.157)"/><path class="h" d="M271.556,643.667l-.021-.026a6.028,6.028,0,0,1,.883-8.647,6.226,6.226,0,0,1,4.807-1.505l-.07,2.05a4.762,4.762,0,0,0-3.529.974,3.992,3.992,0,0,0-.406,5.719l.022.026a4.014,4.014,0,0,0,5.712.806,4.682,4.682,0,0,0,1.7-3.345l1.9.212a6.075,6.075,0,0,1-2.43,4.684A5.993,5.993,0,0,1,271.556,643.667Z"/><path class="h" d="M281.06,628.258l6.866-5.561,1.178,1.455-5.239,4.243,1.95,2.407,4.644-3.761,1.19,1.47-4.644,3.761,2,2.474,5.3-4.3,1.179,1.455-6.931,5.615Z"/><path class="h" d="M293.011,618.578l1.508-1.222,10.148,2.384-5.186-6.4,1.6-1.3,7.5,9.261-1.362,1.1-10.444-2.452,5.337,6.589-1.6,1.3Z"/><path class="h" d="M310.035,607.287l-2.951,2.39-1.221-1.509,7.527-6.1,1.222,1.509-2.95,2.389,6.279,7.753-1.627,1.318Z"/><path class="h" d="M322.344,603.649l-4.319-5.332L319.652,597l4.265,5.266c1.4,1.733,3.006,1.924,4.474.735,1.442-1.168,1.633-2.745.25-4.452l-4.318-5.332,1.628-1.318,4.254,5.252c2.239,2.765,1.8,5.419-.619,7.38C327.192,606.469,324.519,606.334,322.344,603.649Z" transform="translate(12 -9.699)"/><path class="h" d="M331.274,587.586l4.128-3.344A4.8,4.8,0,0,1,338.824,583a3.636,3.636,0,0,1,2.386,1.376l.022.027a3.58,3.58,0,0,1,.075,4.584l5.34,1.481-1.932,1.564-4.89-1.385-2.037,1.65,2.615,3.228-1.628,1.319ZM339,588.93c1.165-.944,1.423-2.139.651-3.092l-.021-.026c-.815-1.006-1.944-.967-3.161.02l-2.368,1.917,2.518,3.109Z" transform="translate(12 -9.699)"/><path class="h" d="M347.289,582.327l-.022-.027a6.115,6.115,0,0,1,.977-8.721,6.048,6.048,0,0,1,8.687.85l.021.027a6.115,6.115,0,0,1-.976,8.721A6.049,6.049,0,0,1,347.289,582.327Zm7.978-6.462-.022-.027a4.058,4.058,0,0,0-5.806-.731,4.012,4.012,0,0,0-.487,5.784l.022.027a4.058,4.058,0,0,0,5.806.73A4.012,4.012,0,0,0,355.267,575.865Z" transform="translate(12 -9.699)"/></g><path class="h" d="M703.181,395.013l.854,1.744-8.484,9.982-.972-1.987,2.056-2.351-2.476-5.064-3.124.162-.942-1.928Zm-5.216,5.885,3.38-3.945-5.182.258Z"/><path class="h" d="M708.453,405.992l1.017,2.081-6.654,7.251,9.8-.809.994,2.035-12.954.833-.822-1.683Z"/><path class="h" d="M708.613,425.822l1.422,2.908-3.018,1.475L705.6,427.3Z"/><path class="h" d="M729.24,448.338l.852,1.744-8.484,9.983-.971-1.989,2.054-2.35-2.474-5.065-3.125.162-.942-1.927Zm-5.218,5.885,3.38-3.946-5.181.258Z"/><path class="h" d="M734.51,459.316l1.017,2.082-6.653,7.25,9.8-.809.994,2.035-12.954.833-.823-1.683Z"/><path class="h" d="M742.361,475.384l.92,1.882-10.71,5.233-.919-1.882Z"/><path class="h" d="M748.353,487.451l.853,1.744-8.485,9.983-.971-1.989,2.054-2.349-2.474-5.065-3.124.163-.943-1.928Zm-5.216,5.886,3.378-3.945-5.181.257Z"/><path class="h" d="M748.455,501.507l.031-.015a6.028,6.028,0,0,1,8.23,2.8,6.226,6.226,0,0,1,.388,5.022l-1.983-.528a4.765,4.765,0,0,0-.156-3.656,4,4,0,0,0-5.485-1.681l-.03.016a4.015,4.015,0,0,0-2.067,5.388,4.681,4.681,0,0,0,2.88,2.4l-.633,1.807a6.074,6.074,0,0,1-4.021-3.418A6,6,0,0,1,748.455,501.507Z"/><path class="h" d="M761.393,514.33l.919,1.882L751.6,521.445l-.92-1.882Z"/><path class="h" d="M759.836,524.8l.031-.016a6.117,6.117,0,0,1,8.282,2.909,6.05,6.05,0,0,1-2.778,8.276l-.031.014a6.117,6.117,0,0,1-8.283-2.908A6.05,6.05,0,0,1,759.836,524.8Zm4.509,9.226.03-.015a4.059,4.059,0,0,0,2.015-5.5,4.014,4.014,0,0,0-5.528-1.772l-.03.016a4.058,4.058,0,0,0-2.016,5.495A4.014,4.014,0,0,0,764.345,534.023Zm7.335-6.9.088,2.041-2.44-1.232-.7-1.439Z"/><path class="h" d="M773.553,539.213l.851,1.744-4.6,9.356,7.4-3.619.9,1.852-10.71,5.233-.77-1.576,4.734-9.63-7.62,3.724-.905-1.851Z"/></g></g><g transform="translate(322.891 1603.246)"><path class="i" d="M404.443,517.617c0,23.064-27.785,47.775-27.785,47.775s-27.785-24.711-27.785-47.775a27.786,27.786,0,1,1,55.57,0Zm0,0" transform="translate(-346.346 -487.088)"/><path class="f" d="M356.45,517.617a27.914,27.914,0,0,1,24-27.713,27.577,27.577,0,0,0-3.788-.29,27.9,27.9,0,0,0-27.785,28c0,23.064,27.785,47.775,27.785,47.775s1.516-1.36,3.788-3.664c-7.584-7.689-24-26.364-24-44.111Zm0,0" transform="translate(-346.346 -487.088)"/><path class="j" d="M376.52,567.779a2.521,2.521,0,0,1-1.678-.636c-1.172-1.041-28.634-25.751-28.634-49.646a30.312,30.312,0,1,1,60.622,0c0,8.625-3.532,18.24-10.5,28.586l-4.189-2.821c6.4-9.5,9.638-18.167,9.638-25.765a25.26,25.26,0,1,0-50.518,0c0,18.428,19.373,38.589,25.263,44.291a120.953,120.953,0,0,0,11.764-13.2l4.01,3.072a120.533,120.533,0,0,1-14.1,15.478,2.492,2.492,0,0,1-1.673.636Zm0,0" transform="translate(-346.208 -486.95)"/></g><ellipse class="j" cx="8.69" cy="8.69" rx="8.69" ry="8.69" transform="translate(344.445 1622.855)"/></g></svg>